<svg width="30" height="30" viewBox="0 0 30 30" fill="none" xmlns="http://www.w3.org/2000/svg">
<path d="M29.3375 12.7329C28.2755 11.8901 26.2925 12.609 24.7474 14.337C23.3044 13.9322 22.0234 14.0319 20.9314 14.6511C18.8404 15.8383 18.0484 18.5692 17.7544 20.6445C17.7094 20.9647 17.6674 21.2909 17.6224 21.6172C17.1544 25.209 16.7104 28.6044 12.4804 28.6044C12.4114 28.6044 12.3424 28.6044 12.2704 28.6014C11.0704 28.5711 10.2064 28.1966 9.63038 27.4534C8.56837 26.082 8.75137 23.8405 8.88637 22.9101C9.30638 22.7198 9.60338 22.3029 9.61838 21.8105L9.68138 19.9708L11.9224 19.3002C12.2014 19.2156 12.4174 19.0374 12.5734 18.8169C12.9754 18.9075 13.4764 18.8863 13.8304 18.6628C14.4514 18.2731 15.3574 17.5239 16.4854 16.1072C17.7184 14.5575 18.0214 13.3099 18.0514 12.5003C18.0664 11.9233 17.6674 11.3373 17.3704 11.1741C17.0734 11.011 17.0194 11.3161 17.0764 11.8901C17.1604 12.754 17.0254 14.0681 15.9184 15.497C15.8974 15.5211 15.8794 15.5393 15.8614 15.5634L15.8704 15.5C16.1344 15.0892 16.3624 14.6572 16.5364 14.195C18.3364 9.39487 14.4454 3.79424 14.2774 3.55862C14.2414 3.50727 14.1934 3.47404 14.1454 3.43476C14.2564 3.17799 14.2294 2.94539 14.0434 2.82456C13.7524 2.63424 13.2964 2.06331 13.0324 1.54976L12.5644 0.649554C12.3034 0.139033 11.7514 0.0484074 11.3374 0.447158L10.1764 1.58299C9.75938 1.98174 9.84038 2.52247 10.3474 2.79133L11.1664 3.21424C11.6734 3.4831 12.2284 3.96643 12.4084 4.2957C12.5434 4.54039 12.8554 4.57664 13.1764 4.4105C13.5064 4.89383 16.7104 9.7906 15.2404 13.7086C15.1804 13.8687 15.0874 14.0168 15.0094 14.1708L15.0004 14.1738C14.9104 14.1527 14.8234 14.1195 14.7304 14.1195C14.4994 14.1195 14.2834 14.1889 14.1034 14.3037L14.3764 14.5665C14.2114 14.7689 14.1004 15.0167 14.1004 15.2976C14.1004 15.3671 14.1154 15.4335 14.1274 15.5C13.6114 16.0679 12.9664 16.5754 12.1864 17.0074C11.8984 16.8443 11.5504 16.7929 11.2114 16.8956L8.48137 17.7112L5.55936 16.7808C5.22636 16.6751 4.87836 16.7204 4.59336 16.8775C3.20135 16.0468 2.25334 14.9864 1.77034 13.7086C0.231335 9.60331 3.82835 4.41956 3.86435 4.3682C3.86735 4.35914 3.86735 4.35008 3.87635 4.34102C3.87635 4.34102 3.96035 4.42258 4.06535 4.51622C4.17035 4.61591 4.39835 4.42862 4.57836 4.09935C4.75536 3.76706 5.31636 3.28372 5.82336 3.01789L6.63936 2.59195C7.14937 2.32612 7.22737 1.78539 6.81336 1.38362L5.64936 0.250804C5.23536 -0.150968 4.68936 -0.0603427 4.42235 0.4532L3.95735 1.35341C3.69035 1.86695 3.23735 2.43487 2.94635 2.6282C2.64935 2.81549 2.52035 3.07226 2.64935 3.1931L2.88635 3.41664C2.82935 3.45591 2.77835 3.4982 2.73335 3.55862C2.56535 3.79424 -1.32567 9.39487 0.474337 14.195C1.08034 15.8021 2.24434 17.1101 3.94835 18.107C3.99335 18.5873 4.32035 19.0162 4.80636 19.1733L7.19137 19.9316L7.12837 21.7229C7.11937 22.0945 7.27237 22.4328 7.51837 22.6745C7.35337 23.7831 7.13437 26.4958 8.53537 28.3053C9.37238 29.3868 10.6174 29.9547 12.2374 29.994C12.3244 30 12.4084 30 12.4924 30C17.9254 30 18.5194 25.4597 18.9964 21.8015C19.0384 21.4812 19.0804 21.161 19.1254 20.8438C19.4794 18.3456 20.3614 16.5784 21.6124 15.8685C22.2394 15.509 22.9924 15.4094 23.8504 15.5604C22.7734 17.3518 22.6384 19.2217 23.6194 20.0071C24.7564 20.9133 26.9585 20.0192 28.5365 18.0103C30.1145 16.0014 30.4715 13.6392 29.3375 12.7329ZM15.6634 15.8021C15.5704 15.9138 15.4774 16.0347 15.3874 16.1374C15.4774 16.0226 15.5674 15.9078 15.6514 15.79L15.6634 15.8021ZM26.5085 16.3488C25.9174 17.104 25.0924 17.4394 24.6664 17.098C24.3544 16.8503 24.3454 16.3096 24.5914 15.7417C24.8164 15.8142 25.0444 15.8927 25.2784 15.9924C25.6354 16.1434 26.0375 15.9803 26.1875 15.6238C26.3375 15.2704 26.1725 14.8596 25.8184 14.7085C25.7134 14.6632 25.6144 14.63 25.5094 14.5937C25.9925 14.2373 26.4995 14.1285 26.8025 14.3732C27.2315 14.7146 27.0965 15.5997 26.5085 16.3488Z" fill="white"/>
</svg>
